<mxfile host="app.diagrams.net" modified="2022-06-06T11:02:21.551Z" agent="5.0 (Windows NT 10.0; Win64; x64) AppleWebKit/537.36 (KHTML, like Gecko) Chrome/102.0.5005.63 Safari/537.36" etag="OibB7ns-y79EG0mJgyT1" version="19.0.0" type="github">
  <diagram name="Page-1" id="03018318-947c-dd8e-b7a3-06fadd420f32">
    <mxGraphModel dx="1736" dy="968" grid="1" gridSize="10" guides="1" tooltips="1" connect="1" arrows="1" fold="1" page="1" pageScale="1" pageWidth="1100" pageHeight="850" background="none" math="0" shadow="0">
      <root>
        <mxCell id="0" />
        <mxCell id="1" parent="0" />
        <mxCell id="677b7b8949515195-1" value="" style="whiteSpace=wrap;html=1;rounded=0;shadow=0;labelBackgroundColor=none;strokeWidth=1;fontFamily=Verdana;fontSize=12;align=center;comic=1;verticalAlign=top;spacing=10;fillColor=#f5f5f5;fontColor=#333333;strokeColor=#666666;" parent="1" vertex="1">
          <mxGeometry x="20" y="20" width="1060" height="810" as="geometry" />
        </mxCell>
        <mxCell id="677b7b8949515195-2" value="LOGO" style="whiteSpace=wrap;html=1;rounded=0;shadow=0;labelBackgroundColor=none;strokeWidth=1;fontFamily=Verdana;fontSize=28;align=center;comic=1;" parent="1" vertex="1">
          <mxGeometry x="40" y="60" width="190" height="50" as="geometry" />
        </mxCell>
        <mxCell id="WWjvPEC7dx8PJfdHu804-22" value="" style="edgeStyle=orthogonalEdgeStyle;rounded=0;orthogonalLoop=1;jettySize=auto;html=1;fontFamily=Verdana;fontSize=25;fontColor=#000000;" edge="1" parent="1" source="677b7b8949515195-3" target="WWjvPEC7dx8PJfdHu804-21">
          <mxGeometry relative="1" as="geometry" />
        </mxCell>
        <mxCell id="677b7b8949515195-3" value="Search" style="strokeWidth=1;shadow=0;dashed=0;align=center;html=1;shape=mxgraph.mockup.forms.searchBox;strokeColor=#999999;mainText=;strokeColor2=#008cff;fontColor=#666666;fontSize=17;align=left;spacingLeft=3;rounded=0;labelBackgroundColor=none;comic=1;" parent="1" vertex="1">
          <mxGeometry x="840" y="95" width="220" height="30" as="geometry" />
        </mxCell>
        <mxCell id="677b7b8949515195-8" value="&lt;b&gt;&lt;font style=&quot;font-size: 25px;&quot;&gt;游戏列表&lt;/font&gt;&lt;/b&gt;" style="whiteSpace=wrap;html=1;rounded=0;shadow=0;labelBackgroundColor=none;strokeWidth=1;fillColor=none;fontFamily=Verdana;fontSize=12;align=center;comic=1;" parent="1" vertex="1">
          <mxGeometry x="30" y="160" width="200" height="660" as="geometry" />
        </mxCell>
        <mxCell id="677b7b8949515195-9" value="" style="line;strokeWidth=1;html=1;rounded=0;shadow=0;labelBackgroundColor=none;fillColor=none;fontFamily=Verdana;fontSize=14;fontColor=#000000;align=center;comic=1;" parent="1" vertex="1">
          <mxGeometry x="20" y="140" width="1060" height="10" as="geometry" />
        </mxCell>
        <mxCell id="677b7b8949515195-10" value="&lt;b&gt;&lt;font style=&quot;font-size: 15px;&quot;&gt;标题&lt;/font&gt;&lt;/b&gt;" style="whiteSpace=wrap;html=1;rounded=0;shadow=0;labelBackgroundColor=none;strokeWidth=1;fillColor=none;fontFamily=Verdana;fontSize=12;align=center;comic=1;" parent="1" vertex="1">
          <mxGeometry x="270" y="60" width="510" height="50" as="geometry" />
        </mxCell>
        <mxCell id="677b7b8949515195-15" value="&lt;div style=&quot;&quot;&gt;&lt;b&gt;&lt;font style=&quot;font-size: 26px;&quot;&gt;玩家信息&lt;/font&gt;&lt;/b&gt;&lt;/div&gt;" style="whiteSpace=wrap;html=1;rounded=0;shadow=0;labelBackgroundColor=none;strokeWidth=1;fillColor=none;fontFamily=Verdana;fontSize=12;align=center;verticalAlign=top;spacing=10;comic=1;" parent="1" vertex="1">
          <mxGeometry x="845" y="571" width="225" height="250" as="geometry" />
        </mxCell>
        <mxCell id="677b7b8949515195-25" value="&lt;b&gt;&lt;font style=&quot;font-size: 25px;&quot;&gt;排行榜&lt;/font&gt;&lt;/b&gt;" style="whiteSpace=wrap;html=1;rounded=0;shadow=0;labelBackgroundColor=none;strokeWidth=1;fillColor=none;fontFamily=Verdana;fontSize=12;align=center;comic=1;" parent="1" vertex="1">
          <mxGeometry x="845" y="160" width="225" height="400" as="geometry" />
        </mxCell>
        <mxCell id="WWjvPEC7dx8PJfdHu804-4" value="&lt;b&gt;&lt;font style=&quot;font-size: 25px;&quot;&gt;输入框&lt;/font&gt;&lt;/b&gt;" style="whiteSpace=wrap;html=1;fontFamily=Verdana;fillColor=none;rounded=0;shadow=0;labelBackgroundColor=none;strokeWidth=1;comic=1;" vertex="1" parent="1">
          <mxGeometry x="440" y="760" width="390" height="60" as="geometry" />
        </mxCell>
        <mxCell id="WWjvPEC7dx8PJfdHu804-6" value="&lt;font style=&quot;font-size: 25px;&quot;&gt;&lt;b&gt;按钮区域&lt;/b&gt;&lt;/font&gt;" style="whiteSpace=wrap;html=1;fontFamily=Verdana;fillColor=none;rounded=0;shadow=0;labelBackgroundColor=none;strokeWidth=1;comic=1;" vertex="1" parent="1">
          <mxGeometry x="440" y="570" width="390" height="180" as="geometry" />
        </mxCell>
        <mxCell id="WWjvPEC7dx8PJfdHu804-17" value="&lt;b&gt;&lt;font style=&quot;font-size: 25px;&quot;&gt;操作记录&lt;/font&gt;&lt;/b&gt;" style="whiteSpace=wrap;html=1;fontFamily=Verdana;fillColor=none;rounded=0;shadow=0;labelBackgroundColor=none;strokeWidth=1;comic=1;" vertex="1" parent="1">
          <mxGeometry x="250" y="571" width="170" height="249" as="geometry" />
        </mxCell>
        <mxCell id="WWjvPEC7dx8PJfdHu804-19" value="&lt;b&gt;&lt;font style=&quot;font-size: 25px;&quot;&gt;游戏输出信息&lt;/font&gt;&lt;/b&gt;" style="whiteSpace=wrap;html=1;fontFamily=Verdana;fillColor=none;rounded=0;shadow=0;labelBackgroundColor=none;strokeWidth=1;comic=1;" vertex="1" parent="1">
          <mxGeometry x="250" y="160" width="580" height="400" as="geometry" />
        </mxCell>
        <mxCell id="WWjvPEC7dx8PJfdHu804-21" value="用户账号相关链接" style="whiteSpace=wrap;html=1;fontSize=17;align=left;strokeColor=#999999;fontColor=#666666;strokeWidth=1;shadow=0;dashed=0;spacingLeft=3;rounded=0;labelBackgroundColor=none;comic=1;" vertex="1" parent="1">
          <mxGeometry x="840" y="30" width="230" height="50" as="geometry" />
        </mxCell>
      </root>
    </mxGraphModel>
  </diagram>
</mxfile>
